<?xml version="1.0" encoding="UTF-8"?>
<svg width="191px" height="32px" viewBox="0 0 191 32" version="1.1" xmlns="http://www.w3.org/2000/svg" xmlns:xlink="http://www.w3.org/1999/xlink">
    <title>8AF690D4-B99D-464E-8A97-6B754D69F3C2@1.5x</title>
    <g id="Escenarios_Desktop" stroke="none" stroke-width="1" fill="none" fill-rule="evenodd">
        <g id="InterbankBenefit_DerivaraShopstar_Electrohogar_prod_desk" transform="translate(-1138.000000, -550.000000)" fill-rule="nonzero">
            <g id="Group" transform="translate(1106.000000, 239.000000)">
                <g id="Group-Copy" transform="translate(32.000000, 311.000000)">
                    <path d="M0,21.4855599 L2.32476183,19.3958228 C3.40585737,21.1266115 5.17471753,22.0732984 6.84468047,22.0732984 C8.54715757,22.0732984 9.75921289,21.0941845 9.75921289,19.8858301 C9.75921289,19.036424 9.26833952,18.3509542 8.25272387,17.8613973 C7.95829016,17.6979114 7.23710822,17.4042673 6.12349853,16.9795643 C5.04285458,16.5228846 4.28915848,16.1959129 3.89673074,15.9671227 C2.02942496,14.987108 1.08019237,13.5508642 1.08019237,11.6241626 C1.08019237,10.154591 1.63654562,8.94713731 2.71718958,8.00045037 C3.83079926,7.05376344 5.30477413,6.5642065 7.10569686,6.5642065 C9.62825311,6.5642065 11.5605872,7.4780161 12.9031507,9.2741091 L10.8073427,11.4940044 C9.75921289,10.220796 8.48212927,9.56775319 6.94267451,9.56775319 C5.46869965,9.56775319 4.58494695,10.4167089 4.58494695,11.4940044 C4.58494695,12.3434105 5.0762719,12.9964533 6.0593734,13.420706 L7.86029612,14.1723808 C8.97390581,14.6295108 9.79263021,14.9889095 10.3498866,15.2825536 C12.3477006,16.3274222 13.3624131,17.796093 13.3624131,19.7227946 C13.3624131,21.2576704 12.7401284,22.5637561 11.5285246,23.6086247 C10.3164693,24.6539436 8.71198626,25.1759275 6.77965217,25.1759275 C4.06155942,25.1750267 1.47397487,23.9342453 0,21.4855599 Z" id="Path" fill="#FFFFFF"></path>
                    <path d="M16.5686697,24.7507741 L16.5686697,0 L20.0729727,0 L20.0729727,9.37138997 C21.1211025,7.77166019 23.1839448,6.69436469 25.6730837,6.69436469 C27.6054178,6.69436469 29.242415,7.3145302 30.5849785,8.58818893 C31.9279936,9.86184766 32.5827925,11.6574903 32.5827925,14.0413218 L32.5827925,24.7512245 L28.9804954,24.7512245 L28.9804954,15.0533131 C28.9804954,11.8205258 27.2780183,10.0244328 24.7559137,10.0244328 C22.0378209,10.0244328 20.1709667,12.0812926 20.1709667,15.08574 L20.1709667,24.7507741 L16.5686697,24.7507741 Z" id="Path" fill="#FFFFFF"></path>
                    <path d="M38.3788916,9.40381692 C40.1473001,7.60817429 42.3740679,6.69391432 45.0921607,6.69391432 C47.8102534,6.69391432 50.0370212,7.60817429 51.7738188,9.40381692 C53.5422274,11.1999099 54.4264317,13.3549513 54.4264317,15.9346957 C54.4264317,18.5468671 53.5413242,20.7347858 51.7738188,22.5304284 C50.0379244,24.326071 47.8111566,25.2074537 45.0921607,25.2074537 C42.3740679,25.2074537 40.1473001,24.326071 38.3788916,22.5304284 C36.6429971,20.7347858 35.7587929,18.5468671 35.7587929,15.9346957 C35.7587929,13.3549513 36.6429971,11.1999099 38.3788916,9.40381692 Z M49.1212059,11.7876485 C48.0401104,10.611721 46.6975469,10.0244328 45.0930638,10.0244328 C43.4885808,10.0244328 42.1455657,10.611721 41.0315044,11.7876485 C39.9513121,12.9302483 39.3945072,14.3340652 39.3945072,15.9346957 C39.3945072,17.5668524 39.9513121,18.9715701 41.0315044,20.1141699 C42.1451141,21.2567697 43.4876776,21.8445082 45.0930638,21.8445082 C46.6975469,21.8445082 48.0401104,21.2567697 49.1212059,20.1141699 C50.234364,18.9715701 50.7907173,17.5668524 50.7907173,15.9346957 C50.7907173,14.3340652 50.234364,12.9302483 49.1212059,11.7876485 Z" id="Shape" fill="#FFFFFF"></path>
                    <path d="M73.4923688,9.4042673 C75.1632349,11.1999099 76.0149251,13.3873783 76.0149251,15.9671227 C76.0149251,18.5468671 75.1632349,20.7014581 73.4923688,22.4980015 C71.8228575,24.2936441 69.7265979,25.1750267 67.2049448,25.1750267 C64.7487716,25.1750267 62.7184435,24.2283398 61.1785371,22.3020886 L61.1785371,31.9995496 L57.5762401,31.9995496 L57.5762401,7.15149468 L61.1785371,7.15149468 L61.1785371,9.69836176 C62.7839233,7.70680628 64.8142515,6.72679165 67.2374589,6.72679165 C69.759112,6.72679165 71.8219543,7.60817429 73.4923688,9.4042673 Z M70.8063386,11.7552215 C69.759112,10.6126217 68.3831312,10.0244328 66.7122651,10.0244328 C65.0427537,10.0244328 63.6663213,10.611721 62.6190947,11.7552215 C61.603479,12.8978213 61.0791883,14.2692113 61.0791883,15.9346957 C61.0791883,17.5997298 61.603479,19.036424 62.6190947,20.1794742 C63.6663213,21.322074 65.0427537,21.8773856 66.7122651,21.8773856 C68.3831312,21.8773856 69.7582088,21.322074 70.8063386,20.1794742 C71.8544684,19.036424 72.3792107,17.5997298 72.3792107,15.9346957 C72.3792107,14.2692113 71.8544684,12.8978213 70.8063386,11.7552215 Z" id="Shape" fill="#FFFFFF"></path>
                    <path d="M77.8384271,21.4855599 L80.1631889,19.3958228 C81.2442844,21.1266115 83.0131446,22.0732984 84.6831075,22.0732984 C86.3855846,22.0732984 87.59764,21.0941845 87.59764,19.8858301 C87.59764,19.036424 87.1067666,18.3509542 86.0911509,17.8613973 C85.7967172,17.6979114 85.0755353,17.4042673 83.9619256,16.9795643 C82.8812817,16.5228846 82.1275856,16.1959129 81.7351578,15.9671227 C79.867852,14.987108 78.9186194,13.5508642 78.9186194,11.6241626 C78.9186194,10.154591 79.4749727,8.94713731 80.5556167,8.00045037 C81.6692263,7.05376344 83.1432012,6.5642065 84.9441239,6.5642065 C87.4666802,6.5642065 89.3990143,7.4780161 90.7415778,9.2741091 L88.6457698,11.4940044 C87.59764,10.220796 86.3205563,9.56775319 84.7811016,9.56775319 C83.3071267,9.56775319 82.423374,10.4167089 82.423374,11.4940044 C82.423374,12.3434105 82.914699,12.9964533 83.8973489,13.420706 L85.6987232,14.1723808 C86.8123329,14.6295108 87.6310573,14.9889095 88.1883137,15.2825536 C90.1861277,16.3274222 91.2008402,17.796093 91.2008402,19.7227946 C91.2008402,21.2576704 90.5785554,22.5637561 89.3669517,23.6086247 C88.1548964,24.6539436 86.5504133,25.1759275 84.6180792,25.1759275 C81.8990833,25.1750267 79.3114988,23.9342453 77.8384271,21.4855599 Z" id="Path" fill="#FFFFFF"></path>
                    <path d="M107.142709,23.7054552 C105.833112,24.6854698 104.195211,25.1750267 102.262877,25.1750267 C98.4316262,25.1750267 96.4663264,22.7916456 96.4663264,18.4491358 L96.4663264,10.2203457 L93.4208342,10.2203457 L93.4208342,7.15104431 L96.4992921,7.15104431 L96.4992921,0.915160727 L100.068623,0.915160727 L100.068623,7.15104431 L106.160511,7.15104431 L106.160511,10.2203457 L100.068623,10.2203457 L100.068623,18.5144401 C100.068623,20.7672127 100.986245,21.8773856 102.786716,21.8773856 C103.736852,21.8773856 104.78453,21.5504138 105.897688,20.8973709 L107.142709,23.7054552 Z" id="Path" fill="#FFFFFF"></path>
                    <path d="M123.209216,7.15149468 L126.681005,7.15149468 L126.681005,24.7507741 L123.209216,24.7507741 L123.209216,22.3345156 C121.604733,24.2278894 119.574405,25.1750267 117.182808,25.1750267 C114.661155,25.1750267 112.532381,24.2936441 110.861515,22.4980015 C109.191552,20.7023588 108.372828,18.4820132 108.372828,15.8365141 C108.372828,13.1914654 109.191552,11.036424 110.861515,9.30653606 C112.532381,7.57574734 114.661155,6.72679165 117.182808,6.72679165 C119.573502,6.72679165 121.604733,7.67347858 123.209216,9.60018015 L123.209216,7.15149468 Z M121.767755,20.1465969 C122.848399,19.0039971 123.372238,17.5997298 123.372238,15.9346957 C123.372238,14.3016382 122.848399,12.8978213 121.767755,11.7552215 C120.687111,10.6126217 119.344096,10.0244328 117.673682,10.0244328 C116.003719,10.0244328 114.627738,10.611721 113.579608,11.7552215 C112.53193,12.8978213 112.007639,14.3016382 112.007639,15.9671227 C112.007639,17.6330575 112.53193,19.036424 113.579608,20.1794742 C114.627738,21.322074 116.003267,21.8773856 117.673682,21.8773856 C119.344999,21.8773856 120.687111,21.2891966 121.767755,20.1465969 Z" id="Shape" fill="#FFFFFF"></path>
                    <path d="M130.911909,24.7507741 L130.911909,7.15104431 L134.351183,7.15104431 L134.351183,9.66593481 C135.399313,7.67392895 137.069276,6.69391432 139.361975,6.69391432 C140.115672,6.69391432 140.802533,6.79164556 141.457783,6.98755841 L141.130384,10.4815628 C140.508099,10.253223 139.8533,10.154591 139.19805,10.154591 C136.44654,10.154591 134.515109,12.0488656 134.515109,15.7378821 L134.515109,24.7498733 L130.911909,24.7498733 L130.911909,24.7507741 Z" id="Path" fill="#FFFFFF"></path>
                    <path d="M144.238195,24.1400664 L143.041945,24.7674379 C142.568232,25.0151438 142.015491,24.614761 142.105357,24.0887238 L142.333859,22.7610201 C142.369534,22.5520464 142.300442,22.3394697 142.148258,22.1917469 L141.18051,21.2509148 C140.797566,20.8784552 141.008456,20.2303665 141.538166,20.1538028 L142.875762,19.9601419 C143.086201,19.9295164 143.267738,19.7980071 143.361668,19.6079491 L143.96047,18.3991443 C144.196649,17.9212971 144.880801,17.9212971 145.117432,18.3991443 L145.715783,19.6079491 C145.810164,19.7980071 145.99125,19.929066 146.201689,19.9601419 L147.539285,20.1538028 C148.068994,20.2303665 148.279885,20.879356 147.89694,21.2509148 L146.929193,22.1917469 C146.777008,22.3394697 146.707916,22.5529471 146.743591,22.7610201 L146.972093,24.0887238 C147.062862,24.614761 146.509218,25.0151438 146.035505,24.7674379 L144.839707,24.1400664 C144.650041,24.0409841 144.426055,24.0409841 144.238195,24.1400664 Z" id="Path" fill="#4D008C"></path>
                    <path d="M168.239509,9.40471767 C169.909472,11.2003603 170.761163,13.3878286 170.761163,15.967573 C170.761163,18.5473175 169.909472,20.7019085 168.239509,22.4984518 C166.569095,24.2940945 164.473287,25.1754771 161.951182,25.1754771 C159.495009,25.1754771 157.464229,24.2287902 155.925678,22.302539 L155.925678,32 L152.323381,32 L152.323381,7.15194505 L155.925678,7.15194505 L155.925678,9.69881214 C157.530612,7.70725666 159.560489,6.72724202 161.9846,6.72724202 C164.505349,6.72724202 166.569095,7.60862467 168.239509,9.40471767 Z M165.553479,11.7556719 C164.505349,10.6130721 163.12982,10.0248832 161.459406,10.0248832 C159.788991,10.0248832 158.413462,10.6130721 157.366235,11.7556719 C156.35062,12.8982717 155.826781,14.270112 155.826781,15.9351461 C155.826781,17.6006305 156.35062,19.0368744 157.366235,20.1799246 C158.414365,21.3225243 159.789443,21.877836 161.459406,21.877836 C163.12982,21.877836 164.505349,21.3225243 165.553479,20.1799246 C166.601609,19.0368744 167.125448,17.6001801 167.125448,15.9351461 C167.125448,14.2696617 166.601609,12.8982717 165.553479,11.7556719 Z" id="Shape" fill="#FFFFFF"></path>
                    <path d="M190.870262,17.3385126 L177.082004,17.3385126 C177.605843,20.0808422 179.538177,21.9422395 182.944486,21.9422395 C184.9423,21.9422395 187.365959,21.1919158 188.937928,20.0484152 L190.444417,22.6930136 C188.643043,24.0319766 185.79399,25.1421494 182.813526,25.1421494 C176.1978,25.1421494 173.348747,20.5379722 173.348747,15.901368 C173.348747,13.2567697 174.167471,11.068851 175.837434,9.33806226 C177.507849,7.60772392 179.701651,6.7258909 182.354264,6.7258909 C184.875465,6.7258909 186.972177,7.50999268 188.57666,9.10972246 C190.181143,10.7094522 190.999936,12.8644936 190.999936,15.6077239 C191.001673,16.0981816 190.968256,16.6854698 190.870262,17.3385126 Z M177.082004,14.4002702 L187.365959,14.4002702 C187.071525,11.6241626 185.00778,9.82851996 182.354715,9.82851996 C179.637074,9.82851996 177.606746,11.6570399 177.082004,14.4002702 Z" id="Shape" fill="#FFFFFF"></path>
                </g>
            </g>
        </g>
    </g>
</svg>